<mxfile host="app.diagrams.net" modified="2023-08-23T06:26:26.180Z" agent="Mozilla/5.0 (Macintosh; Intel Mac OS X 10.15; rv:109.0) Gecko/20100101 Firefox/116.0" etag="drwdCAk8AQAhRv0Bv5z9" version="21.6.6" type="github">
  <diagram name="第 1 页" id="qvZdsSlX_pSZ8Vsm2Of8">
    <mxGraphModel dx="1224" dy="595" grid="1" gridSize="10" guides="1" tooltips="1" connect="1" arrows="1" fold="1" page="1" pageScale="1" pageWidth="827" pageHeight="1169" math="0" shadow="0">
      <root>
        <mxCell id="0" />
        <mxCell id="1" parent="0" />
        <mxCell id="ltVz0DTDVRAB9n0ZH03n-1" value="" style="rounded=0;whiteSpace=wrap;html=1;" vertex="1" parent="1">
          <mxGeometry x="250" y="340" width="480" height="180" as="geometry" />
        </mxCell>
        <mxCell id="ltVz0DTDVRAB9n0ZH03n-2" value="" style="rounded=0;whiteSpace=wrap;html=1;" vertex="1" parent="1">
          <mxGeometry x="60" y="70" width="460" height="160" as="geometry" />
        </mxCell>
        <mxCell id="ltVz0DTDVRAB9n0ZH03n-3" value="" style="rounded=0;whiteSpace=wrap;html=1;" vertex="1" parent="1">
          <mxGeometry x="290" y="115" width="120" height="90" as="geometry" />
        </mxCell>
        <mxCell id="ltVz0DTDVRAB9n0ZH03n-4" value="&lt;div&gt;Resolved&lt;/div&gt;&lt;div&gt;PartitionedScan&lt;/div&gt;" style="text;html=1;strokeColor=none;fillColor=none;align=center;verticalAlign=middle;whiteSpace=wrap;rounded=0;" vertex="1" parent="1">
          <mxGeometry x="320" y="125" width="60" height="30" as="geometry" />
        </mxCell>
        <mxCell id="ltVz0DTDVRAB9n0ZH03n-5" style="edgeStyle=orthogonalEdgeStyle;rounded=0;orthogonalLoop=1;jettySize=auto;html=1;exitX=0;exitY=0.5;exitDx=0;exitDy=0;entryX=1;entryY=0.25;entryDx=0;entryDy=0;endArrow=none;endFill=0;" edge="1" parent="1" source="ltVz0DTDVRAB9n0ZH03n-6" target="ltVz0DTDVRAB9n0ZH03n-10">
          <mxGeometry relative="1" as="geometry" />
        </mxCell>
        <mxCell id="ltVz0DTDVRAB9n0ZH03n-6" value="" style="rounded=0;whiteSpace=wrap;html=1;" vertex="1" parent="1">
          <mxGeometry x="300" y="165" width="100" height="30" as="geometry" />
        </mxCell>
        <mxCell id="ltVz0DTDVRAB9n0ZH03n-7" style="edgeStyle=orthogonalEdgeStyle;rounded=0;orthogonalLoop=1;jettySize=auto;html=1;exitX=0.5;exitY=1;exitDx=0;exitDy=0;" edge="1" parent="1" source="ltVz0DTDVRAB9n0ZH03n-8" target="ltVz0DTDVRAB9n0ZH03n-12">
          <mxGeometry relative="1" as="geometry" />
        </mxCell>
        <mxCell id="ltVz0DTDVRAB9n0ZH03n-8" value="&lt;div&gt;RemotePhysical&lt;/div&gt;&lt;div&gt;PlanExecutor&lt;/div&gt;" style="text;html=1;strokeColor=none;fillColor=none;align=center;verticalAlign=middle;whiteSpace=wrap;rounded=0;" vertex="1" parent="1">
          <mxGeometry x="320" y="165" width="60" height="30" as="geometry" />
        </mxCell>
        <mxCell id="ltVz0DTDVRAB9n0ZH03n-9" value="RemoteEngine" style="rounded=0;whiteSpace=wrap;html=1;" vertex="1" parent="1">
          <mxGeometry x="130" y="125" width="110" height="25" as="geometry" />
        </mxCell>
        <mxCell id="ltVz0DTDVRAB9n0ZH03n-10" value="PhysicalPlanCodec" style="rounded=0;whiteSpace=wrap;html=1;" vertex="1" parent="1">
          <mxGeometry x="130" y="150" width="110" height="25" as="geometry" />
        </mxCell>
        <mxCell id="ltVz0DTDVRAB9n0ZH03n-11" style="edgeStyle=orthogonalEdgeStyle;rounded=0;orthogonalLoop=1;jettySize=auto;html=1;exitX=0.5;exitY=1;exitDx=0;exitDy=0;entryX=0.5;entryY=0;entryDx=0;entryDy=0;" edge="1" parent="1" source="ltVz0DTDVRAB9n0ZH03n-12" target="ltVz0DTDVRAB9n0ZH03n-13">
          <mxGeometry relative="1" as="geometry" />
        </mxCell>
        <mxCell id="ltVz0DTDVRAB9n0ZH03n-12" value="Encoded physical plan" style="ellipse;whiteSpace=wrap;html=1;" vertex="1" parent="1">
          <mxGeometry x="100" y="300" width="120" height="50" as="geometry" />
        </mxCell>
        <mxCell id="ltVz0DTDVRAB9n0ZH03n-13" value="" style="rounded=0;whiteSpace=wrap;html=1;" vertex="1" parent="1">
          <mxGeometry x="390" y="410" width="130" height="70" as="geometry" />
        </mxCell>
        <mxCell id="ltVz0DTDVRAB9n0ZH03n-14" value="Executor" style="rounded=0;whiteSpace=wrap;html=1;" vertex="1" parent="1">
          <mxGeometry x="405" y="440" width="100" height="30" as="geometry" />
        </mxCell>
        <mxCell id="ltVz0DTDVRAB9n0ZH03n-15" value="RemoteEngineService" style="text;html=1;strokeColor=none;fillColor=none;align=center;verticalAlign=middle;whiteSpace=wrap;rounded=0;" vertex="1" parent="1">
          <mxGeometry x="425" y="410" width="60" height="30" as="geometry" />
        </mxCell>
        <mxCell id="ltVz0DTDVRAB9n0ZH03n-16" value="&lt;div&gt;&lt;br&gt;&lt;/div&gt;&lt;div&gt;1.Decode the plan and context first&lt;/div&gt;&lt;div&gt;&lt;br&gt;&lt;/div&gt;&lt;div&gt;2. Pass them to executor&lt;br&gt;&lt;/div&gt;&amp;nbsp;then" style="shape=note;whiteSpace=wrap;html=1;backgroundOutline=1;darkOpacity=0.05;" vertex="1" parent="1">
          <mxGeometry x="590" y="380" width="110" height="130" as="geometry" />
        </mxCell>
        <mxCell id="ltVz0DTDVRAB9n0ZH03n-17" value="" style="shape=flexArrow;endArrow=classic;html=1;rounded=0;exitX=0.027;exitY=0.377;exitDx=0;exitDy=0;exitPerimeter=0;" edge="1" parent="1">
          <mxGeometry width="50" height="50" relative="1" as="geometry">
            <mxPoint x="582.97" y="454.5" as="sourcePoint" />
            <mxPoint x="530" y="455.49" as="targetPoint" />
          </mxGeometry>
        </mxCell>
        <mxCell id="ltVz0DTDVRAB9n0ZH03n-18" value="Client side" style="text;html=1;strokeColor=none;fillColor=none;align=center;verticalAlign=middle;whiteSpace=wrap;rounded=0;" vertex="1" parent="1">
          <mxGeometry x="250" y="70" width="60" height="30" as="geometry" />
        </mxCell>
        <mxCell id="ltVz0DTDVRAB9n0ZH03n-19" value="Service side" style="text;html=1;strokeColor=none;fillColor=none;align=center;verticalAlign=middle;whiteSpace=wrap;rounded=0;" vertex="1" parent="1">
          <mxGeometry x="460" y="340" width="70" height="30" as="geometry" />
        </mxCell>
      </root>
    </mxGraphModel>
  </diagram>
</mxfile>
